<svg width="89" height="15" viewBox="0 0 89 15" fill="none" xmlns="http://www.w3.org/2000/svg">
<path d="M2.4 14L3.94 10.52H11.02L12.56 14H15L9.02 0.6H5.98L0 14H2.4ZM6.62 4.5L7.4 2.6H7.56L8.34 4.5L10.16 8.58H4.8L6.62 4.5ZM17.98 14V11.14H18.12C18.54 13.12 20 14.2 22.26 14.2C25.42 14.2 27.12 12.1 27.12 9.04C27.12 5.94 25.44 3.86 22.38 3.86C20 3.86 18.68 5.08 18.28 6.76H18.16V0.6H16V14H17.98ZM18.16 9.14V8.98C18.16 6.86 19.38 5.82 21.62 5.82C23.74 5.82 24.96 6.64 24.96 9.04C24.96 11.42 23.76 12.22 21.58 12.22C19.44 12.22 18.16 11.22 18.16 9.14ZM33.6972 14.2C37.0172 14.2 39.2372 12.1 39.2372 9.04C39.2372 5.94 37.0172 3.86 33.6972 3.86C30.3972 3.86 28.1772 5.94 28.1772 9.04C28.1772 12.1 30.3972 14.2 33.6972 14.2ZM33.6972 12.28C31.2972 12.28 30.2972 11.14 30.2972 9.04C30.2972 6.92 31.2972 5.76 33.6972 5.76C36.1172 5.76 37.1172 6.92 37.1172 9.04C37.1172 11.14 36.1172 12.28 33.6972 12.28ZM44.9447 14.2C47.5047 14.2 48.8247 12.6 49.1447 10.92H49.2647V14H51.2447V4.06H49.1047V8.98C49.1047 11.14 48.0847 12.26 45.8847 12.26C43.7847 12.26 42.9247 11.32 42.9247 9.46V4.06H40.7847V10.04C40.7847 12.34 42.1447 14.2 44.9447 14.2ZM59.727 14V12.06H57.927C56.687 12.06 56.127 11.74 56.127 10.52V5.86H59.727V4.06H56.127V1.88H53.987V4.06H52.307V5.86H53.987V10.64C53.987 13.06 55.307 14 57.447 14H59.727ZM70.6961 14.2C74.7161 14.2 76.9961 12.08 76.9961 8.44V0.6H74.8361V8.3C74.8361 11 73.6361 12.12 70.6961 12.12C67.7561 12.12 66.5561 11 66.5561 8.3V0.6H64.4161V8.44C64.4161 12.08 66.6961 14.2 70.6961 14.2ZM83.6102 14.2C86.4102 14.2 88.2502 13.1 88.2502 11.24C88.2502 9.6 87.1702 8.8 84.8102 8.5L82.5102 8.18C81.0102 7.98 80.6102 7.7 80.6102 6.92C80.6102 5.98 81.2502 5.58 83.0702 5.58C85.2702 5.58 85.8702 6.2 85.8702 7.38V7.5H88.0102V7.44C88.0102 5.08 86.1702 3.86 83.1302 3.86C80.0702 3.86 78.4902 5.1 78.4902 6.84C78.4902 8.5 79.6302 9.3 81.5102 9.54L84.2302 9.9C85.6502 10.1 86.1302 10.36 86.1302 11.18C86.1302 12.06 85.5502 12.46 83.6102 12.46C81.5302 12.46 80.7502 12.04 80.7502 10.74V10.58H78.5902V10.64C78.5902 12.94 80.4102 14.2 83.6102 14.2Z" fill="black"/>
</svg>
