<svg width="60" height="15" viewBox="0 0 60 15" fill="none" xmlns="http://www.w3.org/2000/svg">
<path d="M4.36 14V8.96H10.6V14H14.36V0.6H10.6V5.58H4.36V0.6H0.6V14H4.36ZM21.1409 14.2C24.6409 14.2 27.0209 12.22 27.0209 8.96C27.0209 5.68 24.6409 3.72 21.1409 3.72C17.6409 3.72 15.2609 5.68 15.2609 8.96C15.2609 12.22 17.6409 14.2 21.1409 14.2ZM21.1409 10.88C19.4409 10.88 18.9809 10.42 18.9809 8.96C18.9809 7.5 19.4409 7.02 21.1409 7.02C22.8409 7.02 23.3009 7.5 23.3009 8.96C23.3009 10.42 22.8409 10.88 21.1409 10.88ZM31.6842 14V8.8C31.6842 7.5 32.0042 7.08 33.5442 7.08C35.1042 7.08 35.5042 7.52 35.5042 8.92V14H39.2642V8.8C39.2642 7.5 39.5842 7.08 41.1242 7.08C42.6842 7.08 43.0842 7.52 43.0842 8.92V14H46.8442V7.54C46.8442 5.36 45.6242 3.72 43.0442 3.72C40.4242 3.72 39.4642 5.3 39.2442 6.98H39.0442C38.8442 5.16 37.7042 3.72 35.3242 3.72C32.7842 3.72 31.8642 5.3 31.6442 6.98H31.4442V3.92H27.9242V14H31.6842ZM53.5833 14.2C56.9833 14.2 59.1233 12.62 59.1233 10.38V10.14H55.3633V10.36C55.3633 10.96 54.9633 11.22 53.4433 11.22C51.8433 11.22 51.3033 10.88 51.2433 9.66H59.1433C59.1833 9.3 59.2033 9.04 59.2033 8.7C59.2033 5.46 56.9833 3.72 53.5033 3.72C50.1433 3.72 47.7633 5.68 47.7633 8.96C47.7633 12.74 50.1633 14.2 53.5833 14.2ZM53.4233 6.6C54.8233 6.6 55.4233 6.9 55.5633 7.76H51.3033C51.4633 6.9 52.0433 6.6 53.4233 6.6Z" fill="#FF5555"/>
</svg>
